<?xml version="1.0" encoding="UTF-8" standalone="no"?>
<!-- Created with Inkscape (http://www.inkscape.org/) -->

<svg
   xmlns:dc="http://purl.org/dc/elements/1.1/"
   xmlns:cc="http://creativecommons.org/ns#"
   xmlns:rdf="http://www.w3.org/1999/02/22-rdf-syntax-ns#"
   xmlns:svg="http://www.w3.org/2000/svg"
   xmlns="http://www.w3.org/2000/svg"
   xmlns:sodipodi="http://sodipodi.sourceforge.net/DTD/sodipodi-0.dtd"
   xmlns:inkscape="http://www.inkscape.org/namespaces/inkscape"
   id="svg3336"
   version="1.1"
   inkscape:version="0.91 r13725"
   xml:space="preserve"
   width="990"
   height="990"
   viewBox="0 0 990 990"
   sodipodi:docname="Icons-Map.svg"><metadata
     id="metadata3342"><rdf:RDF><cc:Work
         rdf:about=""><dc:format>image/svg+xml</dc:format><dc:type
           rdf:resource="http://purl.org/dc/dcmitype/StillImage" /><dc:title></dc:title></cc:Work></rdf:RDF></metadata><defs
     id="defs3340"><radialGradient
       fx="0"
       fy="0"
       cx="0"
       cy="0"
       r="1"
       gradientUnits="userSpaceOnUse"
       gradientTransform="matrix(509.12,0,0,509.12,396,396)"
       spreadMethod="pad"
       id="radialGradient3348"><stop
         style="stop-opacity:1;stop-color:#548235"
         offset="0"
         id="stop3350" /><stop
         style="stop-opacity:1;stop-color:#70ad47"
         offset="0.84"
         id="stop3352" /><stop
         style="stop-opacity:1;stop-color:#70ad47"
         offset="1"
         id="stop3354" /></radialGradient><clipPath
       clipPathUnits="userSpaceOnUse"
       id="clipPath3368"><path
         d="M -7.3813e-5,792 792,792 792,0 -1.8135e-5,6.1035e-5"
         id="path3370"
         inkscape:connector-curvature="0"
         style="clip-rule:evenodd" /></clipPath><clipPath
       clipPathUnits="userSpaceOnUse"
       id="clipPath3374"><path
         d="m 237.74,44.687 316.34,0 0,260.083 -316.34,0 0,-260.083 z"
         id="path3376"
         inkscape:connector-curvature="0" /></clipPath><radialGradient
       fx="0"
       fy="0"
       cx="0"
       cy="0"
       r="1"
       gradientUnits="userSpaceOnUse"
       gradientTransform="matrix(-144,-144,144,-144,396,146.51)"
       spreadMethod="pad"
       id="radialGradient3378"><stop
         style="stop-opacity:0;stop-color:#ffffff"
         offset="0"
         id="stop3380" /><stop
         style="stop-opacity:0;stop-color:#ffffff"
         offset="0.3"
         id="stop3382" /><stop
         style="stop-opacity:0.25882353;stop-color:#ffffff"
         offset="0.53333"
         id="stop3384" /><stop
         style="stop-opacity:0.51764706;stop-color:#ffffff"
         offset="0.76667"
         id="stop3386" /><stop
         style="stop-opacity:0.78039216;stop-color:#ffffff"
         offset="1"
         id="stop3388" /></radialGradient><mask
       maskUnits="userSpaceOnUse"
       x="0"
       y="0"
       width="1"
       height="1"
       id="mask3390"><g
         id="g3392"><g
           clip-path="url(#clipPath3374)"
           id="g3394"><path
             d="m 293.73,45.131 c -55.99,56.479 -55.59,147.659 0.89,203.649 56.48,55.99 147.66,55.59 203.65,-0.89 55.81,-56.31 55.62,-147.14 -0.45,-203.203 l -204.09,0.444 z"
             style="fill:url(#radialGradient3378);fill-opacity:1;fill-rule:evenodd;stroke:none"
             id="path3396"
             inkscape:connector-curvature="0" /></g></g></mask><clipPath
       clipPathUnits="userSpaceOnUse"
       id="clipPath3406"><path
         d="M 1.1802e-5,0 792.00001,0 l 0,792 -791.999998198,0 0,-792 z"
         id="path3408"
         inkscape:connector-curvature="0"
         style="clip-rule:evenodd" /></clipPath></defs><sodipodi:namedview
     pagecolor="#ffffff"
     bordercolor="#666666"
     borderopacity="1"
     objecttolerance="10"
     gridtolerance="10"
     guidetolerance="10"
     inkscape:pageopacity="0"
     inkscape:pageshadow="2"
     inkscape:window-width="1920"
     inkscape:window-height="1017"
     id="namedview3338"
     showgrid="false"
     inkscape:zoom="0.85656566"
     inkscape:cx="495"
     inkscape:cy="495"
     inkscape:window-x="-8"
     inkscape:window-y="32"
     inkscape:window-maximized="1"
     inkscape:current-layer="g3344" /><g
     id="g3344"
     inkscape:groupmode="layer"
     inkscape:label="Icons-Map"
     transform="matrix(1.25,0,0,-1.25,0,990)"
     style="display:inline;opacity:1"><g
       id="g3346"
       style=""><path
         d="M 36,681.72 C 36,722.75 69.254,756 110.28,756 l 571.44,0 C 722.75,756 756,722.75 756,681.72 l 0,-571.44 C 756,69.254 722.75,36 681.72,36 L 110.28,36 C 69.254,36 36,69.254 36,110.28 l 0,571.44 z"
         style="fill:url(#radialGradient3348);fill-opacity:1;fill-rule:evenodd;stroke:none"
         id="path3356"
         inkscape:connector-curvature="0" /></g><path
       d="M 36,681.72 C 36,722.75 69.254,756 110.28,756 l 571.44,0 C 722.75,756 756,722.75 756,681.72 l 0,-571.44 C 756,69.254 722.75,36 681.72,36 L 110.28,36 C 69.254,36 36,69.254 36,110.28 l 0,571.44 z"
       style="fill:none;stroke:#385723;stroke-width:4.55999994;stroke-linecap:butt;stroke-linejoin:miter;stroke-miterlimit:10;stroke-dasharray:none;stroke-opacity:1"
       id="path3358"
       inkscape:connector-curvature="0" /><path
       d="m 467.64,372.84 8.63,0 0.26,-0.11 0,0 0,0 75.47,-19.05 -75.47,-19.06 0,0 0,0 0,-82.98 -8.89,0 0,121.2 z"
       style="fill:#ffc000;fill-opacity:1;fill-rule:evenodd;stroke:none"
       id="path3360"
       inkscape:connector-curvature="0" /><path
       d="m 467.64,372.84 8.63,0 0.26,-0.11 0,0 0,0 75.47,-19.05 -75.47,-19.06 0,0 0,0 0,-82.98 -8.89,0 0,121.2 z"
       style="fill:none;stroke:#385723;stroke-width:0.95999998;stroke-linecap:butt;stroke-linejoin:miter;stroke-miterlimit:10;stroke-dasharray:none;stroke-opacity:1"
       id="path3362"
       inkscape:connector-curvature="0" /><g
       id="g3364"
       style=""><g
         id="g3366"
         clip-path="url(#clipPath3368)"
         style=""><g
           id="g3372"
           style="" /><g
           id="g3398"
           mask="url(#mask3390)"
           style=""><path
             d="m 293.73,45.131 c -55.99,56.479 -55.59,147.659 0.89,203.649 56.48,55.99 147.66,55.59 203.65,-0.89 55.81,-56.31 55.62,-147.14 -0.45,-203.203 l -204.09,0.444 z"
             style="fill:#ffc000;fill-opacity:1;fill-rule:evenodd;stroke:none"
             id="path3400"
             inkscape:connector-curvature="0" /></g></g></g><g
       id="g3402"
       style=""><g
         id="g3404"
         clip-path="url(#clipPath3406)"
         style=""><text
           transform="matrix(1,0,0,-1,354.74,110.9)"
           style="font-variant:normal;font-weight:normal;font-size:128.03999329px;font-family:Calibri;-inkscape-font-specification:Calibri;writing-mode:lr-tb;fill:#000000;fill-opacity:1;fill-rule:nonzero;stroke:none"
           id="text3410"><tspan
             x="0"
             y="0"
             id="tspan3412"
             style="">Ṋ</tspan></text>
</g></g><path
       d="m 180,613.68 8.63,0 0.26,-0.11 0,0 0,0 75.47,-19.05 -75.47,-19.06 0,0 0,0 0,-82.98 -8.89,0 0,121.2 z"
       style="fill:#000000;fill-opacity:1;fill-rule:evenodd;stroke:none"
       id="path3414"
       inkscape:connector-curvature="0" /><path
       d="m 180,613.68 8.63,0 0.26,-0.11 0,0 0,0 75.47,-19.05 -75.47,-19.06 0,0 0,0 0,-82.98 -8.89,0 0,121.2 z"
       style="fill:none;stroke:#000000;stroke-width:1;stroke-linecap:butt;stroke-linejoin:miter;stroke-miterlimit:10;stroke-dasharray:none;stroke-opacity:1"
       id="path3416"
       inkscape:connector-curvature="0" /><g
       id="g3418"
       style=""><path
         d="m 72.06,395.94 612,0"
         style="fill:none;stroke:#000000;stroke-width:1.55999994;stroke-linecap:butt;stroke-linejoin:miter;stroke-miterlimit:10;stroke-dasharray:4.68, 1.56000000000000010;stroke-dashoffset:0;stroke-opacity:1"
         id="path3420"
         inkscape:connector-curvature="0" /></g><g
       id="g3422"
       style=""><path
         d="m 396.06,719.94 0,-420.28"
         style="fill:none;stroke:#000000;stroke-width:1.55999994;stroke-linecap:butt;stroke-linejoin:miter;stroke-miterlimit:10;stroke-dasharray:4.68, 1.56000000000000010;stroke-dashoffset:0;stroke-opacity:1"
         id="path3424"
         inkscape:connector-curvature="0" /></g></g></svg>