<?xml version="1.0" encoding="UTF-8" standalone="no"?>
<!-- Created with Inkscape (http://www.inkscape.org/) -->

<svg
   xmlns:dc="http://purl.org/dc/elements/1.1/"
   xmlns:cc="http://creativecommons.org/ns#"
   xmlns:rdf="http://www.w3.org/1999/02/22-rdf-syntax-ns#"
   xmlns:svg="http://www.w3.org/2000/svg"
   xmlns="http://www.w3.org/2000/svg"
   xmlns:sodipodi="http://sodipodi.sourceforge.net/DTD/sodipodi-0.dtd"
   xmlns:inkscape="http://www.inkscape.org/namespaces/inkscape"
   id="svg3336"
   version="1.1"
   inkscape:version="0.91 r13725"
   xml:space="preserve"
   width="990"
   height="990"
   viewBox="0 0 990 990"
   sodipodi:docname="Add.svg"><metadata
     id="metadata3342"><rdf:RDF><cc:Work
         rdf:about=""><dc:format>image/svg+xml</dc:format><dc:type
           rdf:resource="http://purl.org/dc/dcmitype/StillImage" /><dc:title></dc:title></cc:Work></rdf:RDF></metadata><defs
     id="defs3340"><radialGradient
       fx="0"
       fy="0"
       cx="0"
       cy="0"
       r="1"
       gradientUnits="userSpaceOnUse"
       gradientTransform="matrix(458.21,0,0,458.21,396,396)"
       spreadMethod="pad"
       id="radialGradient3348"><stop
         style="stop-opacity:1;stop-color:#ffc000"
         offset="0"
         id="stop3350" /><stop
         style="stop-opacity:1;stop-color:#efb400"
         offset="0.243"
         id="stop3352" /><stop
         style="stop-opacity:1;stop-color:#bf9000"
         offset="1"
         id="stop3354" /></radialGradient></defs><sodipodi:namedview
     pagecolor="#ffffff"
     bordercolor="#666666"
     borderopacity="1"
     objecttolerance="10"
     gridtolerance="10"
     guidetolerance="10"
     inkscape:pageopacity="0"
     inkscape:pageshadow="2"
     inkscape:window-width="958"
     inkscape:window-height="1008"
     id="namedview3338"
     showgrid="false"
     inkscape:zoom="0.85656566"
     inkscape:cx="495"
     inkscape:cy="495"
     inkscape:window-x="953"
     inkscape:window-y="40"
     inkscape:window-maximized="0"
     inkscape:current-layer="g3344" /><g
     id="g3344"
     inkscape:groupmode="layer"
     inkscape:label="Icons"
     transform="matrix(1.25,0,0,-1.25,0,990)"><g
       id="g3346"><path
         d="M 72,396 C 72,574.94 217.06,720 396,720 574.94,720 720,574.94 720,396 720,217.06 574.94,72 396,72 217.06,72 72,217.06 72,396 Z"
         style="fill:url(#radialGradient3348);fill-opacity:1;fill-rule:evenodd;stroke:none"
         id="path3356"
         inkscape:connector-curvature="0" /></g><path
       d="M 72,396 C 72,574.94 217.06,720 396,720 574.94,720 720,574.94 720,396 720,217.06 574.94,72 396,72 217.06,72 72,217.06 72,396 Z"
       style="fill:none;stroke:#bc8c00;stroke-width:4.55999994;stroke-linecap:butt;stroke-linejoin:miter;stroke-miterlimit:10;stroke-dasharray:none;stroke-opacity:1"
       id="path3358"
       inkscape:connector-curvature="0" /><path
       d="m 181.9,532.57 c 0.22,0.36 0.43,0.64 0.62,0.86 0.18,0.21 0.35,0.37 0.49,0.48 0.14,0.11 0.27,0.17 0.39,0.17 0.12,0 0.24,-0.03 0.36,-0.11 l 26.55,-16.96 c 0.11,-0.08 0.19,-0.17 0.24,-0.28 0.05,-0.11 0.06,-0.26 0.01,-0.43 -0.04,-0.17 -0.12,-0.39 -0.23,-0.65 -0.11,-0.26 -0.29,-0.56 -0.51,-0.92 -0.22,-0.34 -0.43,-0.62 -0.62,-0.84 -0.19,-0.22 -0.35,-0.39 -0.49,-0.5 -0.15,-0.11 -0.28,-0.17 -0.4,-0.17 -0.12,0 -0.24,0.04 -0.35,0.11 l -26.55,16.97 c -0.12,0.07 -0.2,0.17 -0.24,0.28 -0.05,0.12 -0.05,0.27 0,0.45 0.04,0.19 0.13,0.41 0.24,0.66 0.11,0.26 0.28,0.55 0.49,0.88 z"
       style="fill:#ac7f00;fill-opacity:1;fill-rule:evenodd;stroke:none"
       id="path3360"
       inkscape:connector-curvature="0" /><path
       d="m 203.32,561.59 c 0.25,0.31 0.47,0.56 0.67,0.77 0.21,0.2 0.39,0.34 0.55,0.42 0.16,0.08 0.3,0.11 0.42,0.11 0.13,-0.01 0.24,-0.05 0.33,-0.13 l 23.74,-18.82 c 0.26,-0.21 0.45,-0.43 0.57,-0.67 0.11,-0.23 0.17,-0.47 0.18,-0.71 0,-0.24 -0.04,-0.47 -0.13,-0.69 -0.09,-0.22 -0.2,-0.41 -0.34,-0.59 l -0.9,-1.13 c -0.28,-0.36 -0.57,-0.64 -0.85,-0.85 -0.28,-0.21 -0.62,-0.36 -1,-0.45 -0.38,-0.09 -0.83,-0.12 -1.36,-0.1 -0.52,0.03 -1.14,0.11 -1.87,0.25 l -20.86,3.75 c -1.08,0.19 -2.2,0.41 -3.36,0.65 -1.16,0.24 -2.27,0.49 -3.34,0.75 l -0.03,-0.04 c 0.98,-0.73 1.97,-1.48 2.97,-2.26 1.01,-0.77 2,-1.55 2.98,-2.33 l 15.53,-12.31 c 0.09,-0.07 0.16,-0.17 0.2,-0.3 0.04,-0.12 0.03,-0.27 -0.03,-0.44 -0.06,-0.17 -0.15,-0.37 -0.29,-0.62 -0.14,-0.24 -0.34,-0.53 -0.61,-0.86 -0.27,-0.34 -0.5,-0.6 -0.71,-0.79 -0.2,-0.19 -0.38,-0.33 -0.52,-0.42 -0.15,-0.09 -0.29,-0.13 -0.42,-0.12 -0.13,0.02 -0.24,0.06 -0.33,0.13 l -23.74,18.82 c -0.53,0.42 -0.79,0.87 -0.78,1.35 0.02,0.48 0.16,0.9 0.45,1.25 l 1.33,1.69 c 0.31,0.39 0.61,0.7 0.89,0.91 0.28,0.22 0.58,0.37 0.9,0.46 0.32,0.09 0.69,0.13 1.12,0.11 0.43,-0.01 0.94,-0.08 1.52,-0.18 l 16.07,-2.92 c 0.99,-0.18 1.95,-0.35 2.88,-0.53 0.93,-0.17 1.84,-0.35 2.73,-0.54 0.89,-0.18 1.76,-0.36 2.63,-0.53 0.86,-0.18 1.73,-0.36 2.6,-0.55 l 0.01,0.02 c -1.07,0.81 -2.17,1.65 -3.31,2.55 -1.14,0.89 -2.23,1.75 -3.28,2.58 l -13.95,11.06 c -0.09,0.08 -0.16,0.17 -0.19,0.29 -0.04,0.12 -0.03,0.27 0.01,0.45 0.05,0.18 0.14,0.39 0.29,0.63 0.14,0.24 0.36,0.53 0.63,0.88 z"
       style="fill:#ac7f00;fill-opacity:1;fill-rule:evenodd;stroke:none"
       id="path3362"
       inkscape:connector-curvature="0" /><path
       d="m 233.17,590.77 12.21,9.68 c 0.1,0.08 0.22,0.13 0.35,0.15 0.13,0.01 0.26,-0.02 0.41,-0.1 0.15,-0.07 0.31,-0.19 0.48,-0.34 0.18,-0.15 0.37,-0.36 0.58,-0.63 0.19,-0.24 0.34,-0.46 0.45,-0.66 0.11,-0.21 0.18,-0.39 0.22,-0.54 0.03,-0.16 0.03,-0.3 -0.01,-0.42 -0.05,-0.12 -0.12,-0.22 -0.23,-0.31 l -10.06,-7.97 6.4,-8.07 8.63,6.84 c 0.1,0.08 0.22,0.13 0.36,0.14 0.13,0.01 0.27,-0.02 0.41,-0.08 0.15,-0.06 0.31,-0.17 0.48,-0.33 0.17,-0.17 0.36,-0.38 0.56,-0.63 0.19,-0.24 0.34,-0.45 0.45,-0.65 0.11,-0.19 0.18,-0.36 0.2,-0.52 0.02,-0.15 0.01,-0.28 -0.04,-0.4 -0.05,-0.11 -0.12,-0.21 -0.23,-0.3 l -8.63,-6.84 7.3,-9.2 10.2,8.09 c 0.1,0.08 0.22,0.13 0.35,0.14 0.13,0.02 0.27,0 0.43,-0.06 0.15,-0.06 0.31,-0.17 0.48,-0.33 0.17,-0.16 0.36,-0.37 0.57,-0.63 0.19,-0.24 0.34,-0.46 0.46,-0.66 0.11,-0.2 0.18,-0.39 0.21,-0.56 0.03,-0.17 0.02,-0.32 -0.02,-0.44 -0.05,-0.12 -0.12,-0.22 -0.23,-0.31 l -12.34,-9.79 c -0.31,-0.24 -0.68,-0.36 -1.11,-0.37 -0.44,-0.01 -0.86,0.24 -1.27,0.76 L 233,588.37 c -0.41,0.51 -0.56,0.98 -0.45,1.4 0.11,0.43 0.31,0.76 0.62,1 z"
       style="fill:#ac7f00;fill-opacity:1;fill-rule:evenodd;stroke:none"
       id="path3364"
       inkscape:connector-curvature="0" /><path
       d="m 255.84,607.8 c 0.35,0.23 0.66,0.4 0.92,0.52 0.25,0.11 0.47,0.19 0.64,0.23 0.18,0.04 0.32,0.04 0.43,-0.01 0.11,-0.05 0.21,-0.13 0.28,-0.24 l 15.32,-23.91 9.91,6.36 c 0.13,0.08 0.26,0.12 0.4,0.11 0.13,0 0.27,-0.04 0.41,-0.12 0.14,-0.08 0.29,-0.21 0.45,-0.39 0.15,-0.19 0.32,-0.42 0.5,-0.7 0.19,-0.29 0.33,-0.54 0.42,-0.75 0.09,-0.21 0.15,-0.4 0.18,-0.58 0.02,-0.17 0,-0.32 -0.05,-0.45 -0.05,-0.12 -0.14,-0.22 -0.27,-0.3 l -12.21,-7.84 c -0.33,-0.21 -0.71,-0.29 -1.15,-0.26 -0.43,0.03 -0.82,0.33 -1.18,0.88 l -16.4,25.59 c -0.08,0.11 -0.11,0.23 -0.11,0.35 0,0.13 0.06,0.26 0.17,0.4 0.11,0.14 0.27,0.31 0.49,0.5 0.22,0.19 0.5,0.39 0.85,0.61 z"
       style="fill:#ac7f00;fill-opacity:1;fill-rule:evenodd;stroke:none"
       id="path3366"
       inkscape:connector-curvature="0" /><path
       d="m 287.15,621.7 c -1.7,-0.82 -2.98,-1.83 -3.83,-3.03 -0.84,-1.2 -1.37,-2.5 -1.58,-3.92 -0.21,-1.41 -0.12,-2.91 0.25,-4.48 0.38,-1.58 0.94,-3.15 1.7,-4.72 0.84,-1.73 1.76,-3.26 2.75,-4.59 0.99,-1.32 2.09,-2.35 3.29,-3.07 1.19,-0.73 2.5,-1.11 3.94,-1.14 1.43,-0.04 3.01,0.37 4.75,1.2 1.71,0.83 3.01,1.85 3.87,3.05 0.86,1.21 1.39,2.53 1.58,3.96 0.19,1.44 0.09,2.94 -0.3,4.52 -0.39,1.58 -0.97,3.17 -1.74,4.77 -0.81,1.68 -1.71,3.16 -2.7,4.46 -0.99,1.29 -2.09,2.31 -3.29,3.03 -1.2,0.72 -2.53,1.1 -3.97,1.14 -1.44,0.04 -3.01,-0.36 -4.72,-1.18 z m -1.38,3.48 c 2.18,1.05 4.23,1.64 6.16,1.76 1.93,0.12 3.74,-0.18 5.42,-0.92 1.68,-0.74 3.23,-1.91 4.65,-3.51 1.42,-1.59 2.7,-3.59 3.86,-5.98 1.15,-2.39 1.91,-4.68 2.27,-6.87 0.37,-2.19 0.31,-4.23 -0.16,-6.12 -0.46,-1.89 -1.37,-3.6 -2.71,-5.14 -1.34,-1.54 -3.14,-2.86 -5.4,-3.95 -2.22,-1.07 -4.3,-1.67 -6.24,-1.79 -1.95,-0.12 -3.75,0.2 -5.42,0.95 -1.67,0.76 -3.22,1.95 -4.64,3.57 -1.42,1.62 -2.72,3.65 -3.9,6.09 -1.12,2.33 -1.86,4.58 -2.22,6.76 -0.35,2.18 -0.29,4.2 0.2,6.08 0.48,1.88 1.39,3.59 2.74,5.12 1.34,1.54 3.14,2.86 5.39,3.95 z"
       style="fill:#ac7f00;fill-opacity:1;fill-rule:evenodd;stroke:none"
       id="path3368"
       inkscape:connector-curvature="0" /><path
       d="m 313.83,632.41 4.08,-12.52 3.74,1.21 c 1.25,0.41 2.24,0.91 2.96,1.51 0.73,0.59 1.28,1.26 1.65,2.01 0.38,0.76 0.58,1.58 0.61,2.47 0.03,0.89 -0.1,1.8 -0.41,2.74 -0.41,1.27 -0.99,2.25 -1.75,2.95 -0.75,0.7 -1.54,1.14 -2.38,1.33 -0.83,0.19 -1.64,0.22 -2.43,0.09 -0.78,-0.13 -1.53,-0.31 -2.24,-0.54 l -3.83,-1.25 z m -3.63,2.6 6.68,2.18 c 0.68,0.22 1.34,0.4 1.97,0.55 0.64,0.15 1.41,0.26 2.32,0.35 0.9,0.09 1.87,0.03 2.92,-0.19 1.04,-0.22 1.98,-0.6 2.84,-1.14 0.85,-0.55 1.6,-1.25 2.25,-2.11 0.64,-0.87 1.16,-1.89 1.54,-3.06 0.51,-1.56 0.71,-3.05 0.6,-4.48 -0.1,-1.42 -0.49,-2.73 -1.16,-3.92 -0.67,-1.2 -1.62,-2.27 -2.85,-3.2 -1.23,-0.94 -2.82,-1.72 -4.75,-2.35 l -3.54,-1.16 3.66,-11.24 c 0.04,-0.12 0.04,-0.25 0,-0.37 -0.04,-0.12 -0.13,-0.23 -0.26,-0.34 -0.13,-0.1 -0.33,-0.22 -0.58,-0.35 -0.25,-0.12 -0.58,-0.25 -0.98,-0.38 -0.4,-0.14 -0.74,-0.22 -1.02,-0.27 -0.28,-0.05 -0.51,-0.07 -0.69,-0.06 -0.18,0 -0.31,0.04 -0.41,0.12 -0.1,0.07 -0.17,0.17 -0.21,0.3 l -9.39,28.8 c -0.21,0.65 -0.19,1.16 0.06,1.54 0.25,0.39 0.58,0.65 1,0.78 z"
       style="fill:#ac7f00;fill-opacity:1;fill-rule:evenodd;stroke:none"
       id="path3370"
       inkscape:connector-curvature="0" /><path
       d="m 454.12,644 c 0.5,-0.16 0.89,-0.29 1.17,-0.41 0.28,-0.11 0.49,-0.23 0.62,-0.34 0.14,-0.12 0.21,-0.24 0.23,-0.37 0.02,-0.13 0.02,-0.29 0,-0.48 l -1.25,-28.44 0.02,-0.01 14.95,24.06 c 0.11,0.17 0.22,0.3 0.33,0.39 0.11,0.1 0.25,0.16 0.44,0.17 0.18,0.01 0.42,-0.01 0.73,-0.07 0.31,-0.06 0.71,-0.17 1.19,-0.32 0.45,-0.15 0.8,-0.28 1.06,-0.39 0.26,-0.12 0.45,-0.23 0.6,-0.35 0.14,-0.12 0.22,-0.25 0.26,-0.39 0.03,-0.14 0.05,-0.31 0.04,-0.5 l -1.09,-28.45 0.05,-0.02 15.17,24.03 c 0.1,0.14 0.2,0.27 0.28,0.37 0.09,0.11 0.22,0.17 0.39,0.19 0.18,0.01 0.41,-0.01 0.7,-0.07 0.29,-0.05 0.68,-0.16 1.14,-0.3 0.49,-0.16 0.86,-0.3 1.13,-0.43 0.27,-0.13 0.45,-0.27 0.55,-0.42 0.09,-0.16 0.1,-0.34 0.03,-0.54 -0.08,-0.21 -0.21,-0.49 -0.41,-0.83 l -17.43,-26.26 c -0.14,-0.21 -0.29,-0.36 -0.46,-0.46 -0.17,-0.09 -0.38,-0.14 -0.63,-0.14 -0.25,0 -0.55,0.03 -0.89,0.1 -0.34,0.08 -0.75,0.19 -1.23,0.34 -0.5,0.16 -0.92,0.31 -1.26,0.45 -0.34,0.14 -0.61,0.29 -0.81,0.43 -0.2,0.14 -0.34,0.3 -0.41,0.47 -0.07,0.18 -0.1,0.39 -0.09,0.63 l 0.91,25.71 -0.05,0.02 -13.51,-21.73 c -0.12,-0.21 -0.26,-0.36 -0.42,-0.47 -0.15,-0.1 -0.35,-0.15 -0.58,-0.16 -0.23,0 -0.52,0.03 -0.86,0.1 -0.34,0.07 -0.77,0.19 -1.29,0.35 -0.53,0.17 -0.97,0.33 -1.31,0.47 -0.35,0.15 -0.62,0.29 -0.82,0.44 -0.21,0.14 -0.35,0.3 -0.42,0.47 -0.08,0.18 -0.11,0.39 -0.09,0.63 l 0.87,31.52 c 0.02,0.4 0.06,0.71 0.12,0.92 0.05,0.22 0.17,0.36 0.34,0.43 0.17,0.07 0.42,0.07 0.74,0 0.31,-0.06 0.73,-0.17 1.25,-0.34 z"
       style="fill:#ac7f00;fill-opacity:1;fill-rule:evenodd;stroke:none"
       id="path3372"
       inkscape:connector-curvature="0" /><path
       d="m 503.25,626.15 13.94,-6.96 c 0.12,-0.06 0.21,-0.14 0.28,-0.25 0.07,-0.11 0.1,-0.25 0.09,-0.42 -0.01,-0.16 -0.04,-0.36 -0.11,-0.58 -0.06,-0.23 -0.17,-0.49 -0.32,-0.79 -0.14,-0.27 -0.27,-0.5 -0.41,-0.69 -0.14,-0.18 -0.28,-0.32 -0.4,-0.42 -0.12,-0.1 -0.25,-0.16 -0.38,-0.17 -0.13,-0.01 -0.25,0.02 -0.37,0.08 l -11.49,5.73 -4.6,-9.21 9.85,-4.92 c 0.12,-0.06 0.21,-0.15 0.27,-0.27 0.07,-0.12 0.11,-0.25 0.11,-0.41 0.01,-0.15 -0.02,-0.34 -0.1,-0.57 -0.07,-0.23 -0.18,-0.48 -0.33,-0.77 -0.13,-0.27 -0.27,-0.5 -0.4,-0.68 -0.12,-0.18 -0.25,-0.32 -0.38,-0.41 -0.13,-0.08 -0.26,-0.13 -0.38,-0.13 -0.13,-0.01 -0.25,0.02 -0.37,0.08 l -9.85,4.93 -5.25,-10.51 11.64,-5.82 c 0.12,-0.06 0.22,-0.15 0.29,-0.26 0.06,-0.1 0.1,-0.24 0.12,-0.41 0.01,-0.17 -0.02,-0.36 -0.1,-0.58 -0.07,-0.22 -0.18,-0.48 -0.33,-0.78 -0.14,-0.27 -0.27,-0.5 -0.4,-0.69 -0.13,-0.19 -0.27,-0.34 -0.42,-0.43 -0.14,-0.1 -0.28,-0.16 -0.4,-0.17 -0.13,-0.01 -0.26,0.01 -0.38,0.07 l -14.09,7.05 c -0.35,0.17 -0.62,0.45 -0.81,0.84 -0.2,0.39 -0.15,0.88 0.15,1.47 l 13.09,26.19 c 0.29,0.59 0.65,0.93 1.08,1.01 0.43,0.08 0.81,0.03 1.16,-0.15 z"
       style="fill:#ac7f00;fill-opacity:1;fill-rule:evenodd;stroke:none"
       id="path3374"
       inkscape:connector-curvature="0" /><path
       d="m 543.76,596.95 -14.27,-9.81 9.19,-6.78 5.1,16.57 -0.02,0.02 z m 2.8,3.54 c 0.44,-0.32 0.79,-0.6 1.06,-0.83 0.27,-0.23 0.48,-0.44 0.62,-0.62 0.13,-0.19 0.21,-0.37 0.23,-0.54 0.02,-0.17 0,-0.35 -0.05,-0.54 l -9.25,-31.08 c -0.12,-0.38 -0.24,-0.66 -0.37,-0.85 -0.12,-0.19 -0.28,-0.29 -0.46,-0.31 -0.18,-0.01 -0.4,0.06 -0.67,0.22 -0.28,0.16 -0.62,0.39 -1.04,0.7 -0.43,0.31 -0.76,0.57 -0.99,0.78 -0.24,0.21 -0.4,0.38 -0.5,0.52 -0.09,0.15 -0.14,0.28 -0.14,0.41 0,0.12 0.02,0.27 0.05,0.43 l 2.48,8.1 -10.98,8.11 -6.85,-4.75 c -0.13,-0.09 -0.26,-0.16 -0.4,-0.2 -0.13,-0.04 -0.28,-0.04 -0.46,0 -0.17,0.03 -0.39,0.12 -0.65,0.27 -0.26,0.15 -0.58,0.36 -0.96,0.65 -0.39,0.29 -0.7,0.54 -0.93,0.76 -0.23,0.22 -0.35,0.42 -0.39,0.59 -0.03,0.17 0.03,0.34 0.17,0.52 0.14,0.18 0.38,0.38 0.71,0.6 l 26.97,18 c 0.16,0.11 0.32,0.18 0.48,0.21 0.16,0.03 0.35,0.01 0.56,-0.07 0.21,-0.07 0.45,-0.19 0.73,-0.37 0.28,-0.17 0.63,-0.41 1.03,-0.71 z"
       style="fill:#ac7f00;fill-opacity:1;fill-rule:evenodd;stroke:none"
       id="path3376"
       inkscape:connector-curvature="0" /><path
       d="m 565.03,580.54 -17.8,-18.33 3.22,-3.13 c 1.51,-1.46 2.96,-2.5 4.36,-3.13 1.39,-0.62 2.81,-0.88 4.26,-0.78 1.44,0.11 2.91,0.58 4.39,1.41 1.49,0.84 3,2.06 4.56,3.66 1.24,1.27 2.23,2.61 2.98,4.01 0.75,1.41 1.18,2.84 1.28,4.29 0.11,1.46 -0.14,2.91 -0.73,4.36 -0.6,1.45 -1.71,2.97 -3.34,4.55 l -3.18,3.09 z m 0.56,4.51 5.33,-5.18 c 2.04,-1.98 3.51,-3.91 4.4,-5.81 0.9,-1.89 1.34,-3.8 1.34,-5.71 -0.01,-1.92 -0.45,-3.82 -1.33,-5.7 -0.87,-1.88 -2.17,-3.71 -3.89,-5.48 -1.98,-2.04 -3.97,-3.57 -5.97,-4.59 -2,-1.01 -3.99,-1.54 -5.96,-1.57 -1.98,-0.02 -3.93,0.42 -5.87,1.34 -1.94,0.91 -3.92,2.35 -5.93,4.3 l -4.99,4.85 c -0.28,0.27 -0.45,0.62 -0.52,1.05 -0.06,0.43 0.13,0.88 0.59,1.35 l 20.4,21.01 c 0.46,0.47 0.9,0.68 1.34,0.63 0.43,-0.06 0.78,-0.22 1.06,-0.49 z"
       style="fill:#ac7f00;fill-opacity:1;fill-rule:evenodd;stroke:none"
       id="path3378"
       inkscape:connector-curvature="0" /><path
       d="m 589.02,555.29 -20.17,-15.69 2.76,-3.54 c 1.29,-1.66 2.58,-2.89 3.88,-3.71 1.3,-0.81 2.67,-1.26 4.11,-1.36 1.45,-0.09 2.97,0.17 4.55,0.79 1.58,0.62 3.26,1.62 5.02,2.99 1.4,1.09 2.57,2.28 3.51,3.57 0.94,1.28 1.56,2.64 1.86,4.07 0.31,1.42 0.26,2.9 -0.12,4.41 -0.39,1.52 -1.28,3.18 -2.68,4.97 l -2.72,3.5 z m 1.18,4.39 4.56,-5.87 c 1.75,-2.24 2.93,-4.36 3.56,-6.36 0.62,-2 0.8,-3.95 0.52,-5.84 -0.27,-1.9 -0.97,-3.72 -2.1,-5.46 -1.12,-1.75 -2.66,-3.38 -4.61,-4.9 -2.24,-1.74 -4.43,-2.98 -6.55,-3.71 -2.12,-0.73 -4.16,-0.97 -6.12,-0.73 -1.96,0.25 -3.83,0.96 -5.63,2.14 -1.79,1.17 -3.55,2.87 -5.27,5.08 l -4.27,5.49 c -0.24,0.31 -0.36,0.68 -0.37,1.11 -0.01,0.44 0.25,0.86 0.77,1.26 l 23.11,17.98 c 0.52,0.41 0.99,0.55 1.41,0.44 0.42,-0.11 0.75,-0.32 0.99,-0.63 z"
       style="fill:#ac7f00;fill-opacity:1;fill-rule:evenodd;stroke:none"
       id="path3380"
       inkscape:connector-curvature="0" /><path
       d="m 307.27,208.17 c -1.71,0.81 -3.3,1.17 -4.76,1.08 -1.47,-0.09 -2.82,-0.5 -4.05,-1.23 -1.23,-0.72 -2.34,-1.73 -3.33,-3.01 -0.99,-1.28 -1.86,-2.71 -2.61,-4.28 -0.82,-1.74 -1.44,-3.42 -1.85,-5.02 -0.4,-1.6 -0.51,-3.1 -0.33,-4.49 0.18,-1.39 0.71,-2.65 1.59,-3.78 0.87,-1.14 2.18,-2.12 3.92,-2.94 1.72,-0.82 3.32,-1.19 4.8,-1.1 1.48,0.08 2.84,0.5 4.07,1.25 1.24,0.76 2.35,1.78 3.34,3.07 0.98,1.29 1.86,2.74 2.62,4.34 0.8,1.69 1.39,3.32 1.78,4.9 0.38,1.59 0.48,3.08 0.29,4.47 -0.19,1.39 -0.72,2.66 -1.6,3.81 -0.88,1.14 -2.17,2.12 -3.88,2.93 z m 1.84,3.26 c 2.18,-1.04 3.93,-2.27 5.24,-3.7 1.31,-1.42 2.2,-3.02 2.68,-4.79 0.48,-1.77 0.54,-3.71 0.19,-5.82 -0.35,-2.11 -1.1,-4.36 -2.24,-6.76 -1.14,-2.4 -2.44,-4.43 -3.92,-6.08 -1.48,-1.66 -3.1,-2.9 -4.87,-3.72 -1.76,-0.82 -3.67,-1.19 -5.71,-1.11 -2.04,0.08 -4.19,0.65 -6.45,1.72 -2.23,1.06 -4,2.31 -5.31,3.75 -1.32,1.43 -2.2,3.04 -2.66,4.81 -0.47,1.77 -0.51,3.72 -0.14,5.85 0.37,2.12 1.14,4.41 2.3,6.85 1.11,2.34 2.4,4.33 3.87,5.97 1.47,1.65 3.09,2.87 4.85,3.67 1.77,0.8 3.67,1.16 5.71,1.08 2.04,-0.08 4.19,-0.65 6.46,-1.72 z"
       style="fill:#ac7f00;fill-opacity:1;fill-rule:evenodd;stroke:none"
       id="path3382"
       inkscape:connector-curvature="0" /><path
       d="m 346.72,197.35 c 0.38,-0.12 0.7,-0.23 0.96,-0.35 0.27,-0.11 0.47,-0.23 0.6,-0.35 0.13,-0.12 0.21,-0.24 0.25,-0.35 0.04,-0.12 0.04,-0.24 0.01,-0.35 l -8.76,-29 c -0.1,-0.32 -0.23,-0.58 -0.41,-0.78 -0.18,-0.19 -0.38,-0.33 -0.6,-0.43 -0.22,-0.09 -0.45,-0.13 -0.68,-0.13 -0.24,0 -0.47,0.03 -0.69,0.1 l -1.38,0.41 c -0.43,0.14 -0.8,0.29 -1.1,0.48 -0.3,0.19 -0.56,0.45 -0.78,0.77 -0.22,0.32 -0.42,0.73 -0.59,1.22 -0.17,0.5 -0.33,1.11 -0.47,1.84 l -4.18,20.77 c -0.23,1.08 -0.44,2.2 -0.64,3.36 -0.21,1.17 -0.38,2.29 -0.53,3.38 l -0.05,0.02 c -0.32,-1.18 -0.66,-2.38 -1.01,-3.6 -0.35,-1.21 -0.7,-2.42 -1.06,-3.62 l -5.73,-18.97 c -0.04,-0.11 -0.11,-0.21 -0.21,-0.3 -0.1,-0.08 -0.24,-0.13 -0.42,-0.14 -0.17,0 -0.4,0.01 -0.68,0.05 -0.28,0.04 -0.62,0.12 -1.03,0.25 -0.41,0.12 -0.74,0.24 -1,0.36 -0.25,0.12 -0.44,0.24 -0.58,0.34 -0.14,0.1 -0.22,0.22 -0.26,0.34 -0.04,0.13 -0.04,0.25 0,0.36 l 8.76,29 c 0.19,0.65 0.52,1.05 0.97,1.22 0.45,0.16 0.89,0.18 1.33,0.05 l 2.05,-0.62 c 0.49,-0.15 0.88,-0.31 1.18,-0.49 0.3,-0.18 0.55,-0.4 0.76,-0.67 0.2,-0.26 0.37,-0.6 0.51,-1 0.15,-0.41 0.27,-0.9 0.39,-1.48 l 3.2,-16.02 c 0.2,-0.98 0.39,-1.94 0.57,-2.87 0.18,-0.93 0.35,-1.84 0.51,-2.73 0.15,-0.9 0.31,-1.78 0.47,-2.65 0.15,-0.87 0.3,-1.74 0.45,-2.61 l 0.02,-0.01 c 0.36,1.29 0.74,2.63 1.15,4.01 0.41,1.39 0.81,2.72 1.19,4 l 5.15,17.05 c 0.04,0.11 0.1,0.21 0.2,0.29 0.1,0.07 0.24,0.12 0.42,0.15 0.19,0.02 0.42,0.01 0.69,-0.04 0.28,-0.05 0.63,-0.14 1.05,-0.26 z"
       style="fill:#ac7f00;fill-opacity:1;fill-rule:evenodd;stroke:none"
       id="path3384"
       inkscape:connector-curvature="0" /><path
       d="m 355.89,195.39 15.37,-2.54 c 0.13,-0.02 0.25,-0.08 0.34,-0.16 0.1,-0.09 0.17,-0.21 0.21,-0.37 0.04,-0.16 0.07,-0.36 0.07,-0.59 0.01,-0.23 -0.02,-0.52 -0.07,-0.85 -0.05,-0.3 -0.12,-0.56 -0.2,-0.78 -0.08,-0.22 -0.16,-0.39 -0.25,-0.52 -0.09,-0.13 -0.19,-0.22 -0.31,-0.27 -0.12,-0.05 -0.25,-0.06 -0.38,-0.04 l -12.67,2.09 -1.68,-10.16 10.86,-1.8 c 0.14,-0.02 0.25,-0.08 0.35,-0.17 0.09,-0.09 0.17,-0.21 0.22,-0.36 0.06,-0.14 0.08,-0.34 0.07,-0.58 0,-0.23 -0.03,-0.51 -0.08,-0.83 -0.05,-0.3 -0.11,-0.56 -0.18,-0.77 -0.07,-0.21 -0.15,-0.37 -0.25,-0.5 -0.1,-0.12 -0.21,-0.2 -0.32,-0.24 -0.12,-0.04 -0.25,-0.05 -0.38,-0.03 l -10.86,1.8 -1.92,-11.59 12.84,-2.12 c 0.13,-0.02 0.25,-0.08 0.35,-0.16 0.1,-0.09 0.17,-0.21 0.23,-0.36 0.06,-0.16 0.09,-0.35 0.09,-0.58 -0.01,-0.23 -0.04,-0.52 -0.09,-0.85 -0.05,-0.3 -0.11,-0.56 -0.18,-0.78 -0.07,-0.22 -0.16,-0.4 -0.27,-0.53 -0.11,-0.14 -0.22,-0.23 -0.34,-0.28 -0.12,-0.05 -0.25,-0.06 -0.38,-0.04 L 350.54,163 c -0.39,0.06 -0.73,0.25 -1.03,0.56 -0.3,0.32 -0.39,0.8 -0.29,1.45 L 354,193.9 c 0.1,0.65 0.35,1.08 0.74,1.28 0.38,0.2 0.76,0.27 1.15,0.21 z"
       style="fill:#ac7f00;fill-opacity:1;fill-rule:evenodd;stroke:none"
       id="path3386"
       inkscape:connector-curvature="0" /><path
       d="m 391.63,187.99 -0.1,-13.16 3.93,-0.04 c 1.32,-0.01 2.42,0.16 3.29,0.49 0.87,0.33 1.61,0.79 2.21,1.39 0.59,0.59 1.05,1.31 1.36,2.14 0.31,0.84 0.47,1.75 0.47,2.73 0.01,1.33 -0.23,2.45 -0.72,3.35 -0.49,0.9 -1.1,1.58 -1.83,2.02 -0.74,0.45 -1.5,0.73 -2.28,0.86 -0.79,0.12 -1.55,0.19 -2.3,0.19 l -4.03,0.03 z m -2.61,3.63 7.03,-0.06 c 0.71,0 1.39,-0.04 2.04,-0.1 0.65,-0.07 1.42,-0.2 2.3,-0.4 0.89,-0.2 1.79,-0.57 2.71,-1.11 0.92,-0.54 1.7,-1.21 2.33,-1.99 0.64,-0.78 1.13,-1.69 1.47,-2.71 0.33,-1.03 0.5,-2.16 0.49,-3.39 -0.01,-1.64 -0.3,-3.12 -0.85,-4.44 -0.55,-1.31 -1.33,-2.43 -2.34,-3.35 -1.02,-0.92 -2.26,-1.63 -3.73,-2.13 -1.46,-0.5 -3.21,-0.74 -5.24,-0.72 l -3.73,0.03 -0.09,-11.82 c 0,-0.14 -0.04,-0.26 -0.12,-0.36 -0.07,-0.1 -0.19,-0.18 -0.35,-0.24 -0.17,-0.06 -0.39,-0.1 -0.67,-0.14 -0.28,-0.04 -0.63,-0.06 -1.05,-0.06 -0.42,0 -0.77,0.03 -1.05,0.07 -0.28,0.05 -0.5,0.1 -0.67,0.16 -0.17,0.06 -0.29,0.14 -0.36,0.24 -0.06,0.11 -0.1,0.22 -0.09,0.36 l 0.23,30.29 c 0,0.68 0.19,1.16 0.54,1.44 0.36,0.29 0.76,0.43 1.2,0.43 z"
       style="fill:#ac7f00;fill-opacity:1;fill-rule:evenodd;stroke:none"
       id="path3388"
       inkscape:connector-curvature="0" /><path
       d="m 418.43,188.39 -3.87,-16.87 11.35,1.22 -7.45,15.66 -0.03,-0.01 z m -0.33,4.51 c 0.54,0.06 0.99,0.09 1.34,0.11 0.36,0.01 0.65,-0.01 0.88,-0.05 0.22,-0.04 0.4,-0.12 0.53,-0.24 0.13,-0.11 0.24,-0.26 0.33,-0.43 l 14.21,-29.15 c 0.18,-0.35 0.28,-0.64 0.31,-0.87 0.04,-0.22 -0.01,-0.4 -0.13,-0.54 -0.12,-0.13 -0.34,-0.23 -0.64,-0.29 -0.31,-0.07 -0.73,-0.13 -1.25,-0.19 -0.52,-0.06 -0.94,-0.09 -1.25,-0.1 -0.31,0 -0.55,0.01 -0.72,0.05 -0.17,0.05 -0.29,0.11 -0.38,0.21 -0.09,0.09 -0.17,0.21 -0.25,0.35 l -3.66,7.65 -13.57,-1.47 -1.83,-8.13 c -0.03,-0.16 -0.09,-0.29 -0.16,-0.41 -0.07,-0.12 -0.18,-0.23 -0.34,-0.32 -0.15,-0.09 -0.37,-0.17 -0.66,-0.24 -0.29,-0.06 -0.67,-0.12 -1.14,-0.17 -0.49,-0.05 -0.89,-0.07 -1.21,-0.07 -0.31,0.01 -0.54,0.07 -0.68,0.17 -0.14,0.11 -0.21,0.27 -0.23,0.5 -0.02,0.23 0.02,0.54 0.12,0.92 l 7.68,31.5 c 0.05,0.19 0.12,0.35 0.22,0.48 0.09,0.13 0.24,0.24 0.45,0.33 0.2,0.09 0.46,0.17 0.79,0.23 0.32,0.06 0.74,0.12 1.24,0.17 z"
       style="fill:#ac7f00;fill-opacity:1;fill-rule:evenodd;stroke:none"
       id="path3390"
       inkscape:connector-curvature="0" /><path
       d="m 439.48,192.45 2.56,-10.76 4.15,0.98 c 1.12,0.27 2.05,0.64 2.8,1.1 0.75,0.47 1.34,1.01 1.77,1.62 0.42,0.62 0.69,1.28 0.79,2 0.09,0.72 0.05,1.47 -0.13,2.24 -0.3,1.25 -0.83,2.24 -1.6,2.97 -0.76,0.73 -1.85,1.13 -3.26,1.2 -0.43,0.01 -0.92,-0.01 -1.45,-0.09 -0.53,-0.07 -1.21,-0.21 -2.05,-0.41 l -3.58,-0.85 z m -3.5,2.87 6.79,1.61 c 0.8,0.2 1.48,0.34 2.02,0.42 0.55,0.09 1.04,0.16 1.48,0.21 1.28,0.08 2.45,0 3.51,-0.23 1.05,-0.24 1.99,-0.63 2.8,-1.19 0.81,-0.55 1.48,-1.25 2.02,-2.08 0.54,-0.84 0.94,-1.81 1.2,-2.91 0.26,-1.07 0.34,-2.07 0.26,-2.98 -0.09,-0.92 -0.33,-1.77 -0.72,-2.54 -0.38,-0.78 -0.9,-1.5 -1.54,-2.16 -0.65,-0.66 -1.4,-1.26 -2.26,-1.81 0.59,-0.11 1.13,-0.29 1.64,-0.54 0.52,-0.25 1.02,-0.58 1.5,-0.99 0.49,-0.4 0.98,-0.89 1.46,-1.45 0.48,-0.56 0.98,-1.21 1.5,-1.94 l 4.54,-6.35 c 0.37,-0.53 0.62,-0.91 0.74,-1.14 0.13,-0.22 0.2,-0.4 0.23,-0.53 0.04,-0.13 0.04,-0.25 0.01,-0.36 -0.02,-0.11 -0.11,-0.22 -0.26,-0.33 -0.15,-0.1 -0.37,-0.2 -0.65,-0.31 -0.29,-0.1 -0.68,-0.21 -1.18,-0.33 -0.43,-0.1 -0.78,-0.17 -1.06,-0.2 -0.28,-0.03 -0.51,-0.03 -0.69,0 -0.18,0.04 -0.33,0.11 -0.46,0.22 -0.12,0.11 -0.24,0.26 -0.35,0.44 l -4.73,6.83 c -0.55,0.77 -1.09,1.47 -1.63,2.1 -0.55,0.63 -1.13,1.14 -1.77,1.53 -0.63,0.4 -1.33,0.66 -2.09,0.78 -0.76,0.13 -1.62,0.07 -2.59,-0.16 l -2.84,-0.67 3.24,-13.6 c 0.03,-0.13 0.02,-0.26 -0.03,-0.37 -0.05,-0.12 -0.15,-0.23 -0.29,-0.32 -0.14,-0.1 -0.34,-0.2 -0.6,-0.3 -0.27,-0.11 -0.6,-0.21 -1.01,-0.31 -0.41,-0.1 -0.76,-0.16 -1.04,-0.18 -0.28,-0.02 -0.51,-0.03 -0.69,-0.01 -0.18,0.02 -0.31,0.07 -0.4,0.15 -0.09,0.09 -0.15,0.19 -0.18,0.33 l -7.05,29.56 c -0.15,0.64 -0.09,1.13 0.19,1.47 0.27,0.33 0.6,0.55 0.98,0.64 z"
       style="fill:#ac7f00;fill-opacity:1;fill-rule:evenodd;stroke:none"
       id="path3392"
       inkscape:connector-curvature="0" /><path
       d="m 455.53,200.03 21.45,7.84 c 0.12,0.05 0.25,0.06 0.38,0.04 0.12,-0.03 0.25,-0.1 0.37,-0.22 0.13,-0.12 0.25,-0.28 0.36,-0.5 0.12,-0.22 0.23,-0.48 0.34,-0.78 0.11,-0.3 0.19,-0.57 0.24,-0.81 0.05,-0.23 0.06,-0.43 0.04,-0.59 -0.02,-0.16 -0.07,-0.29 -0.15,-0.39 -0.08,-0.1 -0.18,-0.18 -0.31,-0.22 l -8.67,-3.18 9.78,-26.73 c 0.04,-0.13 0.05,-0.25 0.02,-0.37 -0.03,-0.12 -0.11,-0.23 -0.25,-0.35 -0.14,-0.11 -0.33,-0.24 -0.58,-0.37 -0.25,-0.14 -0.57,-0.28 -0.96,-0.42 -0.39,-0.14 -0.72,-0.24 -1,-0.3 -0.29,-0.06 -0.52,-0.09 -0.7,-0.09 -0.18,-0.01 -0.32,0.03 -0.42,0.1 -0.09,0.07 -0.17,0.17 -0.21,0.3 l -9.78,26.73 -8.68,-3.17 c -0.12,-0.05 -0.25,-0.06 -0.38,-0.03 -0.12,0.03 -0.24,0.09 -0.36,0.21 -0.11,0.11 -0.23,0.27 -0.35,0.48 -0.12,0.2 -0.23,0.46 -0.34,0.76 -0.11,0.3 -0.19,0.57 -0.24,0.82 -0.04,0.24 -0.06,0.45 -0.05,0.62 0.02,0.16 0.06,0.3 0.14,0.4 0.08,0.1 0.18,0.17 0.31,0.22 z"
       style="fill:#ac7f00;fill-opacity:1;fill-rule:evenodd;stroke:none"
       id="path3394"
       inkscape:connector-curvature="0" /><path
       d="m 478.24,208.69 c 0.45,0.22 0.83,0.39 1.12,0.5 0.3,0.11 0.54,0.18 0.73,0.21 0.2,0.03 0.36,0.02 0.49,-0.04 0.13,-0.06 0.28,-0.14 0.43,-0.26 l 8.27,-6.42 c 0.78,-0.61 1.57,-1.27 2.39,-1.96 0.81,-0.69 1.64,-1.38 2.47,-2.08 l 0.05,0.02 c -0.09,1.04 -0.16,2.07 -0.21,3.11 -0.06,1.04 -0.11,2.07 -0.15,3.09 l -0.14,10.53 c -0.03,0.18 -0.03,0.34 0,0.48 0.03,0.15 0.11,0.29 0.22,0.41 0.12,0.13 0.3,0.27 0.54,0.43 0.24,0.16 0.56,0.33 0.96,0.53 0.54,0.27 0.98,0.47 1.31,0.58 0.33,0.12 0.58,0.15 0.75,0.11 0.18,-0.05 0.29,-0.18 0.35,-0.39 0.06,-0.22 0.09,-0.53 0.09,-0.95 l -0.05,-20.72 5.4,-10.83 c 0.06,-0.12 0.08,-0.24 0.06,-0.36 -0.01,-0.13 -0.08,-0.25 -0.21,-0.38 -0.12,-0.13 -0.3,-0.27 -0.54,-0.44 -0.23,-0.16 -0.53,-0.34 -0.89,-0.52 -0.38,-0.18 -0.7,-0.32 -0.97,-0.41 -0.27,-0.08 -0.49,-0.14 -0.68,-0.16 -0.18,-0.03 -0.33,-0.01 -0.43,0.05 -0.11,0.06 -0.19,0.15 -0.25,0.27 l -5.4,10.83 -16.57,12.44 c -0.34,0.27 -0.57,0.49 -0.71,0.67 -0.14,0.18 -0.17,0.35 -0.11,0.51 0.06,0.16 0.23,0.33 0.51,0.51 0.28,0.18 0.67,0.39 1.17,0.64 z"
       style="fill:#ac7f00;fill-opacity:1;fill-rule:evenodd;stroke:none"
       id="path3396"
       inkscape:connector-curvature="0" /><path
       d="m 217.98,221.2 27.5,0 8.5,27.5 8.5,-27.5 27.5,0 -22.25,-17 8.5,-27.5 -22.25,17 -22.25,-17 8.5,27.5 -22.25,17 z"
       style="fill:#e2a700;fill-opacity:1;fill-rule:evenodd;stroke:none"
       id="path3398"
       inkscape:connector-curvature="0" /><path
       d="m 217.98,221.2 27.5,0 8.5,27.5 8.5,-27.5 27.5,0 -22.25,-17 8.5,-27.5 -22.25,17 -22.25,-17 8.5,27.5 -22.25,17 z"
       style="fill:none;stroke:#bc8c00;stroke-width:3;stroke-linecap:butt;stroke-linejoin:miter;stroke-miterlimit:10;stroke-dasharray:none;stroke-opacity:1"
       id="path3400"
       inkscape:connector-curvature="0" /><path
       d="m 591.54,487.84 27.5,0 8.5,27.5 8.5,-27.5 27.5,0 -22.25,-17 8.5,-27.5 -22.25,17 -22.25,-17 8.5,27.5 -22.25,17 z"
       style="fill:#e2a700;fill-opacity:1;fill-rule:evenodd;stroke:none"
       id="path3402"
       inkscape:connector-curvature="0" /><path
       d="m 591.54,487.84 27.5,0 8.5,27.5 8.5,-27.5 27.5,0 -22.25,-17 8.5,-27.5 -22.25,17 -22.25,-17 8.5,27.5 -22.25,17 z"
       style="fill:none;stroke:#bc8c00;stroke-width:3;stroke-linecap:butt;stroke-linejoin:miter;stroke-miterlimit:10;stroke-dasharray:none;stroke-opacity:1"
       id="path3404"
       inkscape:connector-curvature="0" /><path
       d="m 124.14,487.84 27.5,0 8.5,27.5 8.5,-27.5 27.5,0 -22.25,-17 8.5,-27.5 -22.25,17 -22.25,-17 8.5,27.5 -22.25,17 z"
       style="fill:#e2a700;fill-opacity:1;fill-rule:evenodd;stroke:none"
       id="path3406"
       inkscape:connector-curvature="0" /><path
       d="m 124.14,487.84 27.5,0 8.5,27.5 8.5,-27.5 27.5,0 -22.25,-17 8.5,-27.5 -22.25,17 -22.25,-17 8.5,27.5 -22.25,17 z"
       style="fill:none;stroke:#bc8c00;stroke-width:3;stroke-linecap:butt;stroke-linejoin:miter;stroke-miterlimit:10;stroke-dasharray:none;stroke-opacity:1"
       id="path3408"
       inkscape:connector-curvature="0" /><path
       d="m 360.06,657.52 27.5,0 8.5,27.5 8.5,-27.5 27.5,0 -22.25,-17 8.5,-27.5 -22.25,17 -22.25,-17 8.5,27.5 -22.25,17 z"
       style="fill:#e2a700;fill-opacity:1;fill-rule:evenodd;stroke:none"
       id="path3410"
       inkscape:connector-curvature="0" /><path
       d="m 360.06,657.52 27.5,0 8.5,27.5 8.5,-27.5 27.5,0 -22.25,-17 8.5,-27.5 -22.25,17 -22.25,-17 8.5,27.5 -22.25,17 z"
       style="fill:none;stroke:#bc8c00;stroke-width:3;stroke-linecap:butt;stroke-linejoin:miter;stroke-miterlimit:10;stroke-dasharray:none;stroke-opacity:1"
       id="path3412"
       inkscape:connector-curvature="0" /><path
       d="m 504.06,221.2 27.5,0 8.5,27.5 8.5,-27.5 27.5,0 -22.25,-17 8.5,-27.5 -22.25,17 -22.25,-17 8.5,27.5 -22.25,17 z"
       style="fill:#e2a700;fill-opacity:1;fill-rule:evenodd;stroke:none"
       id="path3414"
       inkscape:connector-curvature="0" /><path
       d="m 504.06,221.2 27.5,0 8.5,27.5 8.5,-27.5 27.5,0 -22.25,-17 8.5,-27.5 -22.25,17 -22.25,-17 8.5,27.5 -22.25,17 z"
       style="fill:none;stroke:#bc8c00;stroke-width:3;stroke-linecap:butt;stroke-linejoin:miter;stroke-miterlimit:10;stroke-dasharray:none;stroke-opacity:1"
       id="path3416"
       inkscape:connector-curvature="0" /><path
       d="m 252,414 126,0 0,126 36,0 0,-126 126,0 0,-36 -126,0 0,-126 -36,0 0,126 -126,0 0,36 z"
       style="fill:#e2a700;fill-opacity:1;fill-rule:evenodd;stroke:none"
       id="path3418"
       inkscape:connector-curvature="0" /><path
       d="m 252,414 126,0 0,126 36,0 0,-126 126,0 0,-36 -126,0 0,-126 -36,0 0,126 -126,0 0,36 z"
       style="fill:none;stroke:#bc8c00;stroke-width:6;stroke-linecap:butt;stroke-linejoin:miter;stroke-miterlimit:10;stroke-dasharray:none;stroke-opacity:1"
       id="path3420"
       inkscape:connector-curvature="0" /></g></svg>