<?xml version="1.0" encoding="UTF-8" standalone="no"?>
<!-- Created with Inkscape (http://www.inkscape.org/) -->

<svg
   xmlns:dc="http://purl.org/dc/elements/1.1/"
   xmlns:cc="http://creativecommons.org/ns#"
   xmlns:rdf="http://www.w3.org/1999/02/22-rdf-syntax-ns#"
   xmlns:svg="http://www.w3.org/2000/svg"
   xmlns="http://www.w3.org/2000/svg"
   xmlns:sodipodi="http://sodipodi.sourceforge.net/DTD/sodipodi-0.dtd"
   xmlns:inkscape="http://www.inkscape.org/namespaces/inkscape"
   id="svg3512"
   version="1.1"
   inkscape:version="0.91 r13725"
   xml:space="preserve"
   width="990"
   height="990"
   viewBox="0 0 990 990"
   sodipodi:docname="Icons-Shout.svg"><metadata
     id="metadata3518"><rdf:RDF><cc:Work
         rdf:about=""><dc:format>image/svg+xml</dc:format><dc:type
           rdf:resource="http://purl.org/dc/dcmitype/StillImage" /><dc:title></dc:title></cc:Work></rdf:RDF></metadata><defs
     id="defs3516"><clipPath
       clipPathUnits="userSpaceOnUse"
       id="clipPath3530"><path
         d="M 7.57e-7,792 792,792 792,0 -9.086e-6,6.1035e-5"
         id="path3532"
         inkscape:connector-curvature="0"
         style="clip-rule:evenodd" /></clipPath><linearGradient
       x1="282.37"
       y1="481.20001"
       x2="49.875999"
       y2="367.60001"
       gradientUnits="userSpaceOnUse"
       spreadMethod="pad"
       id="linearGradient3538"><stop
         style="stop-opacity:1;stop-color:#ff513d"
         offset="0"
         id="stop3540" /><stop
         style="stop-opacity:1;stop-color:#e24332"
         offset="0.25"
         id="stop3542" /><stop
         style="stop-opacity:1;stop-color:#9d2c20"
         offset="0.5"
         id="stop3544" /><stop
         style="stop-opacity:1;stop-color:#e24332"
         offset="0.75"
         id="stop3546" /><stop
         style="stop-opacity:1;stop-color:#ff513d"
         offset="1"
         id="stop3548" /></linearGradient></defs><sodipodi:namedview
     pagecolor="#ffffff"
     bordercolor="#666666"
     borderopacity="1"
     objecttolerance="10"
     gridtolerance="10"
     guidetolerance="10"
     inkscape:pageopacity="0"
     inkscape:pageshadow="2"
     inkscape:window-width="958"
     inkscape:window-height="1008"
     id="namedview3514"
     showgrid="false"
     inkscape:zoom="0.23838384"
     inkscape:cx="102.77542"
     inkscape:cy="495"
     inkscape:window-x="953"
     inkscape:window-y="40"
     inkscape:window-maximized="0"
     inkscape:current-layer="g3520" /><g
     id="g3520"
     inkscape:groupmode="layer"
     inkscape:label="Icons-Shout"
     transform="matrix(1.25,0,0,-1.25,0,990)"><path
       d="m 720,396 c 0,119.29 -16.12,216 -36,216 -19.88,0 -36,-96.71 -36,-216 0,-119.29 16.12,-216 36,-216 19.88,0 36,96.71 36,216 z"
       style="fill:#ff4531;fill-opacity:1;fill-rule:evenodd;stroke:none"
       id="path3522"
       inkscape:connector-curvature="0" /><path
       d="m 720,396 c 0,119.29 -16.12,216 -36,216 -19.88,0 -36,-96.71 -36,-216 0,-119.29 16.12,-216 36,-216 19.88,0 36,96.71 36,216 z"
       style="fill:none;stroke:#c00000;stroke-width:4.55999994;stroke-linecap:butt;stroke-linejoin:miter;stroke-miterlimit:10;stroke-dasharray:none;stroke-opacity:1"
       id="path3524"
       inkscape:connector-curvature="0" /><g
       id="g3526"><g
         id="g3528"
         clip-path="url(#clipPath3530)"><path
           d="M 684,180 108,323.16 108,468.84 684,612 684,180 Z"
           style="fill:#ff4531;fill-opacity:1;fill-rule:evenodd;stroke:none"
           id="path3534"
           inkscape:connector-curvature="0" /></g></g><g
       id="g3536"><path
         d="m 144,396 c 0,40.69 -16.12,73.68 -36,73.68 -19.882,0 -36,-32.99 -36,-73.68 0,-40.69 16.118,-73.68 36,-73.68 19.88,0 36,32.99 36,73.68 z"
         style="fill:url(#linearGradient3538);fill-opacity:1;fill-rule:evenodd;stroke:none"
         id="path3550"
         inkscape:connector-curvature="0" /></g><path
       d="m 144,396 c 0,40.69 -16.12,73.68 -36,73.68 -19.882,0 -36,-32.99 -36,-73.68 0,-40.69 16.118,-73.68 36,-73.68 19.88,0 36,32.99 36,73.68 z"
       style="fill:none;stroke:#c00000;stroke-width:4.55999994;stroke-linecap:butt;stroke-linejoin:miter;stroke-miterlimit:10;stroke-dasharray:none;stroke-opacity:1"
       id="path3552"
       inkscape:connector-curvature="0" /></g></svg>