<?xml version="1.0" encoding="UTF-8" standalone="no"?>
<!-- Created with Inkscape (http://www.inkscape.org/) -->

<svg
   xmlns:dc="http://purl.org/dc/elements/1.1/"
   xmlns:cc="http://creativecommons.org/ns#"
   xmlns:rdf="http://www.w3.org/1999/02/22-rdf-syntax-ns#"
   xmlns:svg="http://www.w3.org/2000/svg"
   xmlns="http://www.w3.org/2000/svg"
   xmlns:sodipodi="http://sodipodi.sourceforge.net/DTD/sodipodi-0.dtd"
   xmlns:inkscape="http://www.inkscape.org/namespaces/inkscape"
   id="svg3336"
   version="1.1"
   inkscape:version="0.91 r13725"
   xml:space="preserve"
   width="990"
   height="990"
   viewBox="0 0 990 990"
   sodipodi:docname="Icons-Logo.svg"><metadata
     id="metadata3342"><rdf:RDF><cc:Work
         rdf:about=""><dc:format>image/svg+xml</dc:format><dc:type
           rdf:resource="http://purl.org/dc/dcmitype/StillImage" /><dc:title></dc:title></cc:Work></rdf:RDF></metadata><defs
     id="defs3340" /><sodipodi:namedview
     pagecolor="#ffffff"
     bordercolor="#666666"
     borderopacity="1"
     objecttolerance="10"
     gridtolerance="10"
     guidetolerance="10"
     inkscape:pageopacity="0"
     inkscape:pageshadow="2"
     inkscape:window-width="958"
     inkscape:window-height="1008"
     id="namedview3338"
     showgrid="false"
     inkscape:zoom="0.85656566"
     inkscape:cx="495"
     inkscape:cy="495"
     inkscape:window-x="953"
     inkscape:window-y="40"
     inkscape:window-maximized="0"
     inkscape:current-layer="g3344" /><g
     id="g3344"
     inkscape:groupmode="layer"
     inkscape:label="Icons-Logo"
     transform="matrix(1.25,0,0,-1.25,0,990)"><path
       d="M 72,396 C 72,574.94 217.06,720 396,720 574.94,720 720,574.94 720,396 720,217.06 574.94,72 396,72 217.06,72 72,217.06 72,396 Z"
       style="fill:#7030a0;fill-opacity:1;fill-rule:evenodd;stroke:none"
       id="path3346"
       inkscape:connector-curvature="0" /><path
       d="m 238.01,173.81 0,435.25 314.7,0 0,-51.37 -257.11,0 0,-133.3 240.78,0 0,-51.07 -240.78,0 0,-148.15 267.21,0 0,-51.36 -324.8,0 z"
       style="fill:#ffffff;fill-opacity:1;fill-rule:nonzero;stroke:none"
       id="path3348"
       inkscape:connector-curvature="0" /></g></svg>